<svg version="1.1" viewBox="0.0 0.0 562.0 562.0" fill="none" stroke="none" stroke-linecap="square" stroke-miterlimit="10" xmlns:xlink="http://www.w3.org/1999/xlink" xmlns="http://www.w3.org/2000/svg"><clipPath id="p.0"><path d="m0 0l562.0 0l0 562.0l-562.0 0l0 -562.0z" clip-rule="nonzero"/></clipPath><g clip-path="url(#p.0)"><path fill="#000000" fill-opacity="0.0" d="m0 0l562.0 0l0 562.0l-562.0 0z" fill-rule="evenodd"/><defs><linearGradient id="p.1" gradientUnits="userSpaceOnUse" gradientTransform="matrix(23.637061660468895 0.0 0.0 23.637061660468895 0.0 0.0)" spreadMethod="pad" x1="3.0974345682487974E-10" y1="-8.556561953697612E-5" x2="-8.556561953697612E-5" y2="23.636976094694486"><stop offset="0.0" stop-color="#ffffff"/><stop offset="1.0" stop-color="#b3b3b3"/></linearGradient></defs><path fill="url(#p.1)" d="m0 279.35434l0 0c0 -154.28314 125.0712 -279.35434 279.35434 -279.35434l0 0c74.089355 0 145.14423 29.43189 197.53333 81.82099c52.38913 52.38909 81.821014 123.44396 81.821014 197.53336l0 0c0 154.28314 -125.0712 279.35434 -279.35434 279.35434l0 0c-154.28314 0 -279.35434 -125.0712 -279.35434 -279.35434z" fill-rule="evenodd"/><g filter="url(#shadowFilter-p.2)"><use xlink:href="#p.2" transform="matrix(1.0 0.0 0.0 1.0 0.0 2.0)"/></g><defs><filter id="shadowFilter-p.2" filterUnits="userSpaceOnUse"><feGaussianBlur in="SourceAlpha" stdDeviation="2.0" result="blur"/><feComponentTransfer in="blur" color-interpolation-filters="sRGB"><feFuncR type="linear" slope="0" intercept="0.0"/><feFuncG type="linear" slope="0" intercept="0.0"/><feFuncB type="linear" slope="0" intercept="0.0"/><feFuncA type="linear" slope="0.5" intercept="0"/></feComponentTransfer></filter></defs><g id="p.2"><path fill="#000000" fill-opacity="0.0" d="m42.7979 132.96063l406.61417 0l0 261.7953l-406.61417 0z" fill-rule="evenodd"/><path fill="#434343" d="m179.13472 339.09265l-2.125 4.40625q0 4.71875 13.265625 9.03125q13.265625 4.3125 29.125 4.3125q15.875 0 34.921875 -4.71875q19.04689 -4.71875 33.125015 -11.546875q14.078125 -6.84375 23.265625 -14.328125q9.203125 -7.5 9.203125 -13.03125q0 -7.0 -16.28125 -13.015625q-16.265625 -6.015625 -47.28125 -13.265625q-31.000015 -7.25 -45.406265 -18.3125q-14.40625 -11.0625 -14.40625 -26.921875q0 -15.875 11.390625 -30.359375q11.40625 -14.5 29.703125 -25.71875q18.3125 -11.234375 39.968765 -20.03125q44.75 -18.0625 83.0 -18.0625q14.65625 0 25.875 2.609375q21.484375 5.046875 21.484375 13.34375q0 8.296875 -1.46875 11.3125q-1.453125 3.015625 -2.359375 4.0q-0.890625 0.96875 -2.28125 1.953125q-1.375 0.96875 -2.03125 1.453125q-7.15625 6.015625 -39.21875 7.484375q-11.0625 0.484375 -12.046875 1.140625q-0.96875 0.65625 -1.703125 0.65625q-0.734375 0 -1.71875 -1.296875q-0.96875 -1.3125 -0.96875 -4.234375q0 -2.9375 6.34375 -10.75q-19.859375 1.140625 -42.40625 9.125q-22.53125 7.96875 -39.140625 17.984375q-16.593765 10.0 -27.67189 19.6875q-11.0625 9.6875 -11.0625 13.671875q0 3.984375 2.453125 6.59375q6.828125 7.3125 37.92189 15.296875q32.21875 8.296875 42.953125 13.34375q10.75 5.046875 17.828125 9.609375q7.078125 4.546875 11.3125 9.265625q9.9375 11.390625 9.9375 23.109375q0 11.71875 -6.265625 21.984375q-6.265625 10.25 -18.890625 19.859375q-12.609375 9.59375 -29.703125 17.078125q-37.421875 16.765625 -89.187515 16.765625q-37.765625 0 -48.171875 -20.015625q-2.765625 -5.046875 -2.765625 -10.5q0 -5.453125 2.515625 -9.84375q2.53125 -4.390625 6.109375 -6.671875q7.0 -4.40625 9.921875 -4.40625q2.9375 0 2.9375 1.953125z" fill-rule="nonzero"/></g></g></svg>